# xmcd
# 
# Track frame offsets:
#     150
#     19792
#     35350
#     49880
#     65217
#     80175
#     93042
#     110760
#     125662
#     138320
#     153665
#     165795
#     178760
#     190732
#     202175
#     214060
#     226132
#     244965
# 
# Disc length: 3659
# 
# Revision: 0
# Processed by: cddbd v1.5.2PL0 Copyright (c) Steve Scherf et al.
# Submitted via: BonkEnc v1.0.5
# 
DISCID=030e4912
DTITLE=Various Artist - FOLK and POPS BEST HITS 05
DYEAR=0
DGENRE=JPop
TTITLE0=少女
TTITLE1=雨
TTITLE2=秋でもないのに
TTITLE3=耳をすましてごらん
TTITLE4=あの場所から
TTITLE5=風邪と落葉と旅びと
TTITLE6=嵯峨野さやさや
TTITLE7=山羊にひかれて
TTITLE8=あなたが欲しい
TTITLE9=時には母のない子のように
TTITLE10=何故に二人はここに
TTITLE11=花と小父さん
TTITLE12=風がはこぶもの
TTITLE13=一人の手
TTITLE14=君について行こう
TTITLE15=カンドレ・マンドレ
TTITLE16=ともだち
TTITLE17=イメージの詩
EXTD=
EXTT0=
EXTT1=
EXTT2=
EXTT3=
EXTT4=
EXTT5=
EXTT6=
EXTT7=
EXTT8=
EXTT9=
EXTT10=
EXTT11=
EXTT12=
EXTT13=
EXTT14=
EXTT15=
EXTT16=
EXTT17=
PLAYORDER=
